<svg xmlns="http://www.w3.org/2000/svg" xmlns:xlink="http://www.w3.org/1999/xlink" width="48" zoomAndPan="magnify" viewBox="0 0 36 36.000001" height="48" preserveAspectRatio="xMidYMid meet" version="1.0"><defs><clipPath id="aed756cfba"><path d="M 0.488281 2.847656 L 35.511719 2.847656 L 35.511719 32.035156 L 0.488281 32.035156 Z M 0.488281 2.847656 " clip-rule="nonzero"/></clipPath></defs><g clip-path="url(#aed756cfba)"><path fill="#0b61f4" d="M 34.121094 7.597656 C 33.96875 7.234375 33.800781 6.878906 33.625 6.527344 C 33.542969 6.335938 33.453125 6.171875 33.363281 6.027344 C 33.363281 6.023438 33.363281 6.023438 33.363281 6.023438 C 33.359375 6.019531 33.355469 6.015625 33.355469 6.011719 C 33.351562 6.007812 33.351562 6.007812 33.351562 6.007812 C 32.664062 4.917969 31.855469 4.984375 31.65625 5.019531 C 30.644531 5 30.191406 6.734375 30.191406 6.734375 C 29.429688 10.378906 27.21875 10.925781 27.183594 10.933594 C 28.828125 9.53125 28.652344 6.035156 26.65625 6.035156 C 25.007812 6.035156 24.914062 8.09375 24.929688 8.804688 C 24.894531 9.242188 24.824219 9.835938 24.679688 10.382812 C 23.890625 13.007812 21.703125 13.992188 19.878906 14.347656 C 19.113281 14.460938 17.765625 14.558594 16.386719 14.1875 C 11.234375 12.195312 8.320312 16.742188 8.320312 16.742188 C 5.515625 21.03125 2.777344 19.941406 1.285156 18.769531 C 1.285156 18.769531 1.28125 18.769531 1.28125 18.769531 C 1.261719 18.753906 1.242188 18.738281 1.222656 18.71875 C 1.089844 18.613281 0.964844 18.507812 0.855469 18.402344 C 0.855469 18.410156 0.855469 18.414062 0.859375 18.417969 C 0.742188 18.3125 0.613281 18.1875 0.488281 18.042969 C 0.722656 19.179688 1.066406 20.292969 1.523438 21.367188 C 2.414062 23.476562 3.6875 25.367188 5.3125 26.992188 C 6.9375 28.617188 8.828125 29.890625 10.933594 30.78125 C 13.117188 31.703125 15.433594 32.171875 17.820312 32.171875 C 20.207031 32.171875 22.527344 31.703125 24.707031 30.78125 C 26.8125 29.890625 28.703125 28.617188 30.328125 26.992188 C 31.953125 25.367188 33.230469 23.476562 34.121094 21.367188 C 35.042969 19.1875 35.511719 16.871094 35.511719 14.484375 C 35.511719 12.09375 35.042969 9.777344 34.121094 7.597656 Z M 29.957031 10.5 C 30.5625 10.5 31.054688 10.988281 31.054688 11.59375 C 31.054688 12.199219 30.5625 12.691406 29.957031 12.691406 C 29.351562 12.691406 28.859375 12.199219 28.859375 11.59375 C 28.859375 10.988281 29.351562 10.5 29.957031 10.5 Z M 32.707031 22.953125 C 31.523438 24.25 29.34375 26.136719 27.109375 25.523438 C 27.109375 25.523438 31.007812 23.027344 29.164062 21.8125 C 27.320312 20.601562 26.457031 25.78125 19.410156 24.683594 C 19.410156 24.683594 15 23.492188 12.949219 24.894531 C 11.3125 26.007812 9.082031 27.246094 6.410156 27.25 C 4.90625 25.902344 3.636719 24.292969 2.679688 22.492188 C 3.679688 22.929688 5.160156 23.1875 7.070312 22.445312 C 10.847656 20.972656 9.890625 17.3125 16.9375 19.714844 C 20.125 20.800781 22.582031 19.671875 24.324219 18.105469 C 24.453125 17.988281 24.574219 17.871094 24.695312 17.753906 C 24.886719 17.5625 25.070312 17.367188 25.242188 17.171875 C 26.324219 15.847656 27.367188 13.664062 27.367188 13.664062 L 27.371094 13.664062 C 27.507812 13.234375 27.910156 12.925781 28.386719 12.925781 C 28.789062 12.925781 29.136719 13.148438 29.320312 13.476562 C 29.351562 13.539062 29.378906 13.601562 29.402344 13.667969 C 29.429688 13.753906 29.445312 13.84375 29.449219 13.9375 C 29.496094 14.375 29.4375 15.101562 28.894531 16.117188 C 28.210938 17.566406 27.085938 18.898438 27.085938 18.898438 C 27.085938 18.898438 29.535156 18.523438 30.820312 16.074219 C 31.847656 14.117188 33.632812 12.796875 34.902344 13.207031 C 34.933594 13.628906 34.949219 14.054688 34.949219 14.484375 C 34.949219 17.5625 34.132812 20.453125 32.707031 22.953125 Z M 31.472656 20.460938 C 31.472656 21.066406 30.980469 21.558594 30.375 21.558594 C 29.769531 21.558594 29.28125 21.066406 29.28125 20.460938 C 29.28125 19.855469 29.769531 19.363281 30.375 19.363281 C 30.980469 19.363281 31.472656 19.855469 31.472656 20.460938 Z M 25.78125 3.941406 C 25.78125 3.335938 26.269531 2.847656 26.878906 2.847656 C 27.484375 2.847656 27.972656 3.335938 27.972656 3.941406 C 27.972656 4.546875 27.484375 5.039062 26.878906 5.039062 C 26.269531 5.039062 25.78125 4.546875 25.78125 3.941406 Z M 25.78125 3.941406 " fill-opacity="1" fill-rule="nonzero"/></g></svg>