<svg xmlns="http://www.w3.org/2000/svg" xmlns:xlink="http://www.w3.org/1999/xlink" width="400" zoomAndPan="magnify" viewBox="0 0 300 89.999999" height="120" preserveAspectRatio="xMidYMid meet" version="1.0"><defs><g/><clipPath id="30992f8151"><path d="M 9 5.003906 L 104.25 5.003906 L 104.25 85 L 9 85 Z M 9 5.003906 " clip-rule="nonzero"/></clipPath><clipPath id="ab3d9614f6"><path d="M 0.480469 0.0390625 L 173.761719 0.0390625 L 173.761719 51 L 0.480469 51 Z M 0.480469 0.0390625 " clip-rule="nonzero"/></clipPath><clipPath id="e573def1bf"><rect x="0" width="174" y="0" height="51"/></clipPath><clipPath id="0cae7c2403"><rect x="0" width="171" y="0" height="37"/></clipPath><clipPath id="40c5a2cdf7"><rect x="0" width="174" y="0" height="85"/></clipPath></defs><g clip-path="url(#30992f8151)"><path fill="#0b61f4" d="M 100.714844 17.964844 C 100.296875 16.976562 99.847656 16.003906 99.367188 15.050781 C 99.367188 15.050781 99.367188 15.046875 99.367188 15.046875 C 99.136719 14.53125 98.894531 14.078125 98.648438 13.679688 C 98.648438 13.675781 98.648438 13.675781 98.648438 13.675781 C 98.640625 13.660156 98.632812 13.648438 98.625 13.636719 C 98.625 13.632812 98.621094 13.628906 98.617188 13.628906 C 98.617188 13.625 98.617188 13.625 98.617188 13.625 C 96.75 10.65625 94.535156 10.835938 94 10.929688 C 91.238281 10.878906 90 15.609375 90 15.609375 C 87.917969 25.550781 81.890625 27.039062 81.796875 27.058594 C 86.28125 23.242188 85.800781 13.699219 80.363281 13.699219 C 75.859375 13.699219 75.609375 19.324219 75.65625 21.261719 C 75.558594 22.449219 75.367188 24.066406 74.972656 25.566406 C 72.8125 32.71875 66.847656 35.40625 61.878906 36.375 C 59.785156 36.683594 56.117188 36.953125 52.355469 35.941406 C 38.300781 30.503906 30.355469 42.902344 30.355469 42.902344 C 22.707031 54.597656 15.234375 51.625 11.167969 48.433594 C 11.164062 48.433594 11.164062 48.429688 11.160156 48.429688 C 11.105469 48.386719 11.050781 48.34375 11 48.296875 C 10.632812 48.007812 10.300781 47.714844 9.996094 47.433594 C 10 47.449219 10.003906 47.464844 10.007812 47.480469 C 9.6875 47.183594 9.34375 46.84375 9 46.453125 C 9.632812 49.554688 10.574219 52.582031 11.816406 55.519531 C 14.246094 61.265625 17.722656 66.425781 22.152344 70.855469 C 26.585938 75.285156 31.742188 78.765625 37.488281 81.195312 C 43.4375 83.710938 49.753906 84.984375 56.265625 84.984375 C 62.777344 84.984375 69.097656 83.710938 75.042969 81.195312 C 80.789062 78.765625 85.949219 75.285156 90.378906 70.855469 C 94.808594 66.425781 98.285156 61.265625 100.714844 55.519531 C 103.230469 49.574219 104.507812 43.253906 104.507812 36.742188 C 104.507812 30.230469 103.230469 23.914062 100.714844 17.964844 Z M 89.359375 25.878906 C 91.011719 25.878906 92.351562 27.214844 92.351562 28.867188 C 92.351562 30.519531 91.011719 31.859375 89.359375 31.859375 C 87.710938 31.859375 86.371094 30.519531 86.371094 28.867188 C 86.371094 27.214844 87.710938 25.878906 89.359375 25.878906 Z M 96.859375 59.84375 C 93.628906 63.378906 87.6875 68.523438 81.597656 66.851562 C 81.597656 66.851562 92.222656 60.042969 87.199219 56.734375 C 82.171875 53.425781 79.816406 67.550781 60.601562 64.5625 C 60.601562 64.5625 48.578125 61.316406 42.976562 65.132812 C 38.515625 68.175781 32.433594 71.542969 25.152344 71.558594 C 21.042969 67.882812 17.585938 63.492188 14.980469 58.582031 C 17.699219 59.777344 21.738281 60.480469 26.945312 58.453125 C 37.253906 54.445312 34.644531 44.457031 53.859375 51.007812 C 62.542969 53.972656 69.253906 50.890625 74 46.621094 C 74.347656 46.304688 74.6875 45.984375 75.015625 45.660156 C 75.539062 45.140625 76.039062 44.609375 76.507812 44.074219 C 79.457031 40.46875 82.296875 34.507812 82.296875 34.507812 L 82.308594 34.511719 C 82.683594 33.34375 83.78125 32.496094 85.078125 32.496094 C 86.175781 32.496094 87.128906 33.101562 87.625 34 C 87.714844 34.164062 87.789062 34.339844 87.847656 34.523438 C 87.921875 34.757812 87.964844 35.003906 87.980469 35.257812 C 87.980469 35.257812 87.980469 35.257812 87.980469 35.261719 C 88.105469 36.445312 87.941406 38.433594 86.460938 41.199219 C 84.597656 45.148438 81.535156 48.78125 81.535156 48.78125 C 81.535156 48.78125 88.214844 47.765625 91.714844 41.082031 C 94.511719 35.742188 99.382812 32.148438 102.851562 33.265625 C 102.9375 34.414062 102.980469 35.574219 102.980469 36.742188 C 102.980469 45.140625 100.753906 53.027344 96.859375 59.84375 Z M 93.496094 53.046875 C 93.496094 54.695312 92.15625 56.035156 90.507812 56.035156 C 88.855469 56.035156 87.515625 54.695312 87.515625 53.046875 C 87.515625 51.394531 88.855469 50.054688 90.507812 50.054688 C 92.15625 50.054688 93.496094 51.394531 93.496094 53.046875 Z M 77.972656 8 C 77.972656 6.347656 79.3125 5.007812 80.960938 5.007812 C 82.613281 5.007812 83.953125 6.347656 83.953125 8 C 83.953125 9.648438 82.613281 10.988281 80.960938 10.988281 C 79.3125 10.988281 77.972656 9.648438 77.972656 8 Z M 77.972656 8 " fill-opacity="1" fill-rule="nonzero"/></g><g transform="matrix(1, 0, 0, 1, 120, 5)"><g clip-path="url(#40c5a2cdf7)"><g clip-path="url(#ab3d9614f6)"><g transform="matrix(1, 0, 0, 1, 0, -0.000000000000008882)"><g clip-path="url(#e573def1bf)"><g fill="#0b61f4" fill-opacity="1"><g transform="translate(0.630332, 36.436068)"><g><path d="M 21.921875 -33.296875 L 21.921875 -26.640625 L 10.203125 -26.640625 L 10.203125 -20.015625 L 21.03125 -20.015625 L 21.03125 -13.359375 L 10.203125 -13.359375 L 10.203125 0 L 2.625 0 L 2.625 -33.296875 Z M 21.921875 -33.296875 "/></g></g></g><g fill="#0b61f4" fill-opacity="1"><g transform="translate(25.16338, 36.436068)"><g><path d="M 10.609375 -33.296875 L 10.609375 0 L 3.03125 0 L 3.03125 -33.296875 Z M 10.609375 -33.296875 "/></g></g></g><g fill="#0b61f4" fill-opacity="1"><g transform="translate(38.801821, 36.436068)"><g><path d="M 10.25 -33.296875 L 10.25 -6.65625 L 21.71875 -6.65625 L 21.71875 0 L 2.65625 0 L 2.65625 -33.296875 Z M 10.25 -33.296875 "/></g></g></g><g fill="#0b61f4" fill-opacity="1"><g transform="translate(63.173467, 36.436068)"><g><path d="M 2.0625 -26.640625 L 2.0625 -33.296875 L 25.46875 -33.296875 L 25.46875 -26.640625 L 17.5625 -26.640625 L 17.5625 0 L 9.96875 0 L 9.96875 -26.640625 Z M 2.0625 -26.640625 "/></g></g></g><g fill="#0b61f4" fill-opacity="1"><g transform="translate(90.692452, 36.436068)"><g><path d="M 21.921875 -33.296875 L 21.921875 -26.640625 L 10.453125 -26.640625 L 10.453125 -20.015625 L 21.4375 -20.015625 L 21.4375 -13.359375 L 10.453125 -13.359375 L 10.453125 -6.65625 L 21.921875 -6.65625 L 21.921875 0 L 2.859375 0 L 2.859375 -33.296875 Z M 21.921875 -33.296875 "/></g></g></g><g fill="#0b61f4" fill-opacity="1"><g transform="translate(115.427245, 36.436068)"><g><path d="M 2.625 -33.296875 L 14.765625 -33.296875 C 17.429688 -33.242188 19.597656 -32.71875 21.265625 -31.71875 C 22.929688 -30.726562 24.15625 -29.457031 24.9375 -27.90625 C 25.71875 -26.363281 26.109375 -24.742188 26.109375 -23.046875 C 26.085938 -21.347656 25.800781 -19.90625 25.25 -18.71875 C 24.695312 -17.539062 23.953125 -16.5625 23.015625 -15.78125 C 22.085938 -15 21.078125 -14.378906 19.984375 -13.921875 L 29.140625 0 L 20.78125 0 L 12.625 -12.4375 C 12.175781 -12.40625 11.738281 -12.378906 11.3125 -12.359375 C 10.894531 -12.347656 10.523438 -12.34375 10.203125 -12.34375 L 10.203125 0 L 2.625 0 Z M 10.203125 -18.40625 C 11.117188 -18.425781 12.039062 -18.484375 12.96875 -18.578125 C 13.90625 -18.679688 14.753906 -18.878906 15.515625 -19.171875 C 16.285156 -19.460938 16.90625 -19.894531 17.375 -20.46875 C 17.84375 -21.050781 18.09375 -21.828125 18.125 -22.796875 C 18.125 -24.035156 17.765625 -24.972656 17.046875 -25.609375 C 16.335938 -26.242188 15.382812 -26.675781 14.1875 -26.90625 C 12.988281 -27.132812 11.660156 -27.25 10.203125 -27.25 Z M 10.203125 -18.40625 "/></g></g></g><g fill="#0b61f4" fill-opacity="1"><g transform="translate(144.116389, 36.436068)"><g><path d="M 5.9375 -10.171875 C 6.789062 -9.554688 7.789062 -8.984375 8.9375 -8.453125 C 10.082031 -7.929688 11.234375 -7.519531 12.390625 -7.21875 C 13.546875 -6.925781 14.613281 -6.789062 15.59375 -6.8125 C 16.582031 -6.84375 17.378906 -7.078125 17.984375 -7.515625 C 18.585938 -7.960938 18.890625 -8.6875 18.890625 -9.6875 C 18.890625 -10.570312 18.550781 -11.359375 17.875 -12.046875 C 17.207031 -12.734375 16.347656 -13.378906 15.296875 -13.984375 C 14.242188 -14.585938 13.125 -15.195312 11.9375 -15.8125 C 10.757812 -16.4375 9.644531 -17.117188 8.59375 -17.859375 C 7.539062 -18.597656 6.6875 -19.441406 6.03125 -20.390625 C 5.375 -21.347656 5.046875 -22.460938 5.046875 -23.734375 C 5.046875 -25.160156 5.347656 -26.550781 5.953125 -27.90625 C 6.554688 -29.269531 7.445312 -30.453125 8.625 -31.453125 C 9.8125 -32.460938 11.257812 -33.179688 12.96875 -33.609375 C 14.675781 -34.046875 16.640625 -34.054688 18.859375 -33.640625 C 21.085938 -33.222656 23.546875 -32.257812 26.234375 -30.75 L 23.171875 -24.703125 C 21.898438 -25.773438 20.640625 -26.476562 19.390625 -26.8125 C 18.140625 -27.15625 16.988281 -27.222656 15.9375 -27.015625 C 14.894531 -26.816406 14.054688 -26.441406 13.421875 -25.890625 C 12.785156 -25.335938 12.46875 -24.710938 12.46875 -24.015625 C 12.46875 -23.390625 12.816406 -22.828125 13.515625 -22.328125 C 14.210938 -21.835938 15.117188 -21.34375 16.234375 -20.84375 C 17.359375 -20.34375 18.550781 -19.789062 19.8125 -19.1875 C 21.082031 -18.582031 22.273438 -17.867188 23.390625 -17.046875 C 24.503906 -16.234375 25.414062 -15.265625 26.125 -14.140625 C 26.84375 -13.023438 27.203125 -11.6875 27.203125 -10.125 C 27.203125 -8.539062 26.769531 -7.007812 25.90625 -5.53125 C 25.050781 -4.050781 23.851562 -2.769531 22.3125 -1.6875 C 20.78125 -0.613281 18.960938 0.09375 16.859375 0.4375 C 14.765625 0.789062 12.472656 0.65625 9.984375 0.03125 C 7.492188 -0.582031 4.878906 -1.859375 2.140625 -3.796875 Z M 5.9375 -10.171875 "/></g></g></g></g></g></g><g transform="matrix(1, 0, 0, 1, 1, 48)"><g clip-path="url(#0cae7c2403)"><g fill="#0b61f4" fill-opacity="1"><g transform="translate(0.35491, 30.770922)"><g><path d="M 18.203125 -27.65625 L 18.203125 -22.125 L 8.484375 -22.125 L 8.484375 -16.625 L 17.46875 -16.625 L 17.46875 -11.09375 L 8.484375 -11.09375 L 8.484375 0 L 2.171875 0 L 2.171875 -27.65625 Z M 18.203125 -27.65625 "/></g></g></g><g fill="#0b61f4" fill-opacity="1"><g transform="translate(20.73827, 30.770922)"><g><path d="M 8.28125 -13.84375 C 8.28125 -12.414062 8.617188 -11.101562 9.296875 -9.90625 C 9.984375 -8.707031 10.90625 -7.742188 12.0625 -7.015625 C 13.226562 -6.296875 14.523438 -5.9375 15.953125 -5.9375 C 17.390625 -5.9375 18.679688 -6.296875 19.828125 -7.015625 C 20.984375 -7.742188 21.898438 -8.707031 22.578125 -9.90625 C 23.265625 -11.101562 23.609375 -12.414062 23.609375 -13.84375 C 23.609375 -15.28125 23.265625 -16.59375 22.578125 -17.78125 C 21.898438 -18.976562 20.984375 -19.9375 19.828125 -20.65625 C 18.679688 -21.375 17.390625 -21.734375 15.953125 -21.734375 C 14.523438 -21.734375 13.226562 -21.375 12.0625 -20.65625 C 10.90625 -19.9375 9.984375 -18.976562 9.296875 -17.78125 C 8.617188 -16.59375 8.28125 -15.28125 8.28125 -13.84375 Z M 2.015625 -13.84375 C 2.015625 -15.789062 2.367188 -17.625 3.078125 -19.34375 C 3.796875 -21.0625 4.789062 -22.585938 6.0625 -23.921875 C 7.34375 -25.253906 8.828125 -26.296875 10.515625 -27.046875 C 12.203125 -27.796875 14.015625 -28.171875 15.953125 -28.171875 C 17.898438 -28.171875 19.71875 -27.796875 21.40625 -27.046875 C 23.09375 -26.296875 24.566406 -25.253906 25.828125 -23.921875 C 27.097656 -22.585938 28.085938 -21.0625 28.796875 -19.34375 C 29.515625 -17.625 29.875 -15.789062 29.875 -13.84375 C 29.875 -11.90625 29.515625 -10.066406 28.796875 -8.328125 C 28.085938 -6.597656 27.097656 -5.070312 25.828125 -3.75 C 24.566406 -2.4375 23.09375 -1.398438 21.40625 -0.640625 C 19.71875 0.117188 17.898438 0.5 15.953125 0.5 C 14.015625 0.5 12.203125 0.117188 10.515625 -0.640625 C 8.828125 -1.398438 7.34375 -2.4375 6.0625 -3.75 C 4.789062 -5.070312 3.796875 -6.597656 3.078125 -8.328125 C 2.367188 -10.066406 2.015625 -11.90625 2.015625 -13.84375 Z M 2.015625 -13.84375 "/></g></g></g><g fill="#0b61f4" fill-opacity="1"><g transform="translate(52.620791, 30.770922)"><g><path d="M 2.171875 -27.65625 L 12.265625 -27.65625 C 14.484375 -27.613281 16.285156 -27.175781 17.671875 -26.34375 C 19.054688 -25.519531 20.070312 -24.46875 20.71875 -23.1875 C 21.363281 -21.90625 21.6875 -20.554688 21.6875 -19.140625 C 21.664062 -17.734375 21.425781 -16.535156 20.96875 -15.546875 C 20.507812 -14.566406 19.894531 -13.753906 19.125 -13.109375 C 18.351562 -12.460938 17.507812 -11.945312 16.59375 -11.5625 L 24.203125 0 L 17.265625 0 L 10.5 -10.328125 C 10.113281 -10.304688 9.75 -10.289062 9.40625 -10.28125 C 9.0625 -10.269531 8.753906 -10.265625 8.484375 -10.265625 L 8.484375 0 L 2.171875 0 Z M 8.484375 -15.296875 C 9.242188 -15.316406 10.007812 -15.363281 10.78125 -15.4375 C 11.550781 -15.519531 12.253906 -15.679688 12.890625 -15.921875 C 13.523438 -16.171875 14.035156 -16.535156 14.421875 -17.015625 C 14.816406 -17.492188 15.03125 -18.132812 15.0625 -18.9375 C 15.0625 -19.96875 14.765625 -20.742188 14.171875 -21.265625 C 13.578125 -21.796875 12.78125 -22.15625 11.78125 -22.34375 C 10.789062 -22.539062 9.691406 -22.640625 8.484375 -22.640625 Z M 8.484375 -15.296875 "/></g></g></g><g fill="#0b61f4" fill-opacity="1"><g transform="translate(76.457247, 30.770922)"><g/></g></g><g fill="#0b61f4" fill-opacity="1"><g transform="translate(82.022445, 30.770922)"><g><path d="M 20.984375 -27.65625 L 28.40625 -27.65625 L 18.515625 -10.703125 L 18.515625 0 L 11.296875 0 L 11.296875 -10.703125 L 1.4375 -27.65625 L 8.859375 -27.65625 L 14.953125 -16.796875 Z M 20.984375 -27.65625 "/></g></g></g><g fill="#0b61f4" fill-opacity="1"><g transform="translate(111.826405, 30.770922)"><g><path d="M 8.28125 -13.84375 C 8.28125 -12.414062 8.617188 -11.101562 9.296875 -9.90625 C 9.984375 -8.707031 10.90625 -7.742188 12.0625 -7.015625 C 13.226562 -6.296875 14.523438 -5.9375 15.953125 -5.9375 C 17.390625 -5.9375 18.679688 -6.296875 19.828125 -7.015625 C 20.984375 -7.742188 21.898438 -8.707031 22.578125 -9.90625 C 23.265625 -11.101562 23.609375 -12.414062 23.609375 -13.84375 C 23.609375 -15.28125 23.265625 -16.59375 22.578125 -17.78125 C 21.898438 -18.976562 20.984375 -19.9375 19.828125 -20.65625 C 18.679688 -21.375 17.390625 -21.734375 15.953125 -21.734375 C 14.523438 -21.734375 13.226562 -21.375 12.0625 -20.65625 C 10.90625 -19.9375 9.984375 -18.976562 9.296875 -17.78125 C 8.617188 -16.59375 8.28125 -15.28125 8.28125 -13.84375 Z M 2.015625 -13.84375 C 2.015625 -15.789062 2.367188 -17.625 3.078125 -19.34375 C 3.796875 -21.0625 4.789062 -22.585938 6.0625 -23.921875 C 7.34375 -25.253906 8.828125 -26.296875 10.515625 -27.046875 C 12.203125 -27.796875 14.015625 -28.171875 15.953125 -28.171875 C 17.898438 -28.171875 19.71875 -27.796875 21.40625 -27.046875 C 23.09375 -26.296875 24.566406 -25.253906 25.828125 -23.921875 C 27.097656 -22.585938 28.085938 -21.0625 28.796875 -19.34375 C 29.515625 -17.625 29.875 -15.789062 29.875 -13.84375 C 29.875 -11.90625 29.515625 -10.066406 28.796875 -8.328125 C 28.085938 -6.597656 27.097656 -5.070312 25.828125 -3.75 C 24.566406 -2.4375 23.09375 -1.398438 21.40625 -0.640625 C 19.71875 0.117188 17.898438 0.5 15.953125 0.5 C 14.015625 0.5 12.203125 0.117188 10.515625 -0.640625 C 8.828125 -1.398438 7.34375 -2.4375 6.0625 -3.75 C 4.789062 -5.070312 3.796875 -6.597656 3.078125 -8.328125 C 2.367188 -10.066406 2.015625 -11.90625 2.015625 -13.84375 Z M 2.015625 -13.84375 "/></g></g></g><g fill="#0b61f4" fill-opacity="1"><g transform="translate(143.708926, 30.770922)"><g><path d="M 23.96875 -27.65625 L 23.96875 -9.828125 C 23.96875 -6.398438 23.046875 -3.820312 21.203125 -2.09375 C 19.359375 -0.363281 16.679688 0.5 13.171875 0.5 C 9.640625 0.5 6.957031 -0.363281 5.125 -2.09375 C 3.289062 -3.820312 2.375 -6.398438 2.375 -9.828125 L 2.375 -27.65625 L 8.6875 -27.65625 L 8.6875 -11.671875 C 8.6875 -10.128906 8.84375 -8.921875 9.15625 -8.046875 C 9.46875 -7.171875 9.957031 -6.5625 10.625 -6.21875 C 11.300781 -5.875 12.148438 -5.703125 13.171875 -5.703125 C 14.203125 -5.703125 15.046875 -5.875 15.703125 -6.21875 C 16.367188 -6.5625 16.863281 -7.171875 17.1875 -8.046875 C 17.507812 -8.921875 17.671875 -10.128906 17.671875 -11.671875 L 17.671875 -27.65625 Z M 23.96875 -27.65625 "/></g></g></g></g></g></g></g></svg>